<svg width="80" height="80" viewBox="0 0 80 80" fill="none" xmlns="http://www.w3.org/2000/svg">
<g filter="url(#filter0_d_2088_1938)">
<circle cx="40" cy="28" r="28" fill="url(#paint0_linear_2088_1938)"/>
<path fill-rule="evenodd" clip-rule="evenodd" d="M40 14.6667C33.5667 14.6667 28.3333 19.9 28.3333 26.3334C28.3333 32.3734 33.2317 41.3334 40 41.3334C46.7683 41.3334 51.6667 32.3734 51.6667 26.3334C51.6667 19.9 46.4317 14.6667 40 14.6667ZM48.325 23.715C48.295 23.4967 48.1767 23.3 48 23.1667C47.825 23.0334 47.6033 22.98 47.3833 23.0084C43.7117 23.5334 41.15 26.9467 41.675 30.6167C41.735 31.0334 42.0917 31.3334 42.4983 31.3334C42.5367 31.3334 42.5783 31.33 42.6167 31.325C44.395 31.0717 45.97 30.1384 47.0467 28.7017C48.125 27.265 48.5783 25.495 48.325 23.715ZM31.675 23.715C31.74 23.26 32.1683 22.9467 32.6183 23.0084C34.3967 23.2634 35.97 24.1934 37.0467 25.63C38.125 27.0684 38.5783 28.8384 38.325 30.6167C38.265 31.0334 37.9083 31.3334 37.5 31.3334C37.4617 31.3334 37.4217 31.33 37.3833 31.325C35.605 31.07 34.03 30.1384 32.9533 28.7017C31.875 27.265 31.4217 25.4934 31.675 23.715Z" fill="white"/>
</g>
<defs>
<filter id="filter0_d_2088_1938" x="0" y="0" width="80" height="80" filterUnits="userSpaceOnUse" color-interpolation-filters="sRGB">
<feFlood flood-opacity="0" result="BackgroundImageFix"/>
<feColorMatrix in="SourceAlpha" type="matrix" values="0 0 0 0 0 0 0 0 0 0 0 0 0 0 0 0 0 0 127 0" result="hardAlpha"/>
<feOffset dy="12"/>
<feGaussianBlur stdDeviation="6"/>
<feColorMatrix type="matrix" values="0 0 0 0 0.0431373 0 0 0 0 0.639216 0 0 0 0 0.376471 0 0 0 0.08 0"/>
<feBlend mode="normal" in2="BackgroundImageFix" result="effect1_dropShadow_2088_1938"/>
<feBlend mode="normal" in="SourceGraphic" in2="effect1_dropShadow_2088_1938" result="shape"/>
</filter>
<linearGradient id="paint0_linear_2088_1938" x1="40" y1="0" x2="40" y2="56" gradientUnits="userSpaceOnUse">
<stop stop-color="#0BA360"/>
<stop offset="1" stop-color="#3CBA92"/>
</linearGradient>
</defs>
</svg>
