<svg width="80" height="80" viewBox="0 0 80 80" fill="none" xmlns="http://www.w3.org/2000/svg">
<g filter="url(#filter0_d_2088_1934)">
<circle cx="40" cy="28" r="28" fill="url(#paint0_linear_2088_1934)"/>
<path d="M34.9441 27.3078C34.9462 27.295 34.9483 27.2821 34.9503 27.2693L31.1231 28.0979L27.0649 23.5816L28.2271 22.5372L31.679 26.3788L35.5433 25.5422C35.7685 25.1409 36.0457 24.7744 36.3655 24.4509L33.6199 23.7744L31.2144 19.3357L32.5883 18.5912L34.6645 22.4226L37.7249 23.1766C37.1411 22.701 36.7681 21.9767 36.7681 21.165C36.7681 20.5585 36.9769 20.001 37.3258 19.5593C36.8308 19.1293 36.5169 18.496 36.5169 17.7903C36.5169 16.498 37.5683 15.4466 38.8607 15.4466H39.0108V17.0091H38.8607C38.4299 17.0091 38.0794 17.3596 38.0794 17.7903C38.0794 18.2211 38.4299 18.5716 38.8607 18.5716H41.1393C41.5701 18.5716 41.9205 18.2211 41.9205 17.7903C41.9205 17.3596 41.5701 17.0091 41.1393 17.0091H40.9892V15.4466H41.1393C42.4316 15.4466 43.483 16.498 43.483 17.7903C43.483 18.496 43.1691 19.1293 42.6742 19.5593C43.0231 20.001 43.2319 20.5585 43.2319 21.165C43.2319 21.9767 42.8588 22.701 42.2751 23.1766L45.3354 22.4226L47.4117 18.5912L48.7854 19.3357L46.38 23.7744L43.6343 24.4509C43.9541 24.7744 44.2313 25.1409 44.4565 25.5422L48.3209 26.3788L51.7727 22.5372L52.935 23.5816L48.8769 28.0979L45.0497 27.2693C45.0516 27.2822 45.0537 27.2951 45.0558 27.308C45.0594 27.3302 45.063 27.3524 45.066 27.3748L45.1355 27.9037C44.7987 28.3935 44.1912 28.842 43.3986 29.1804C42.4175 29.5993 41.2423 29.8207 40 29.8207C38.7576 29.8207 37.5824 29.5993 36.6013 29.1804C35.8087 28.842 35.2012 28.3935 34.8644 27.9037L34.9339 27.3748C34.9368 27.3523 34.9405 27.33 34.9441 27.3078Z" fill="white"/>
<path d="M52.7975 31.0197L53.3333 32.4876L49.1863 34.0015L45.687 32.0978L45.9125 33.8126C46.3821 37.3841 43.6022 40.5535 40 40.5535C36.3977 40.5535 33.6178 37.3841 34.0875 33.8126L34.3129 32.0977L30.8135 34.0014L26.6667 32.4876L27.2025 31.0197L30.6867 32.2917L34.5648 30.1819L34.61 29.8389C35.0058 30.1334 35.4673 30.3952 35.9878 30.6174C37.1613 31.1184 38.5487 31.3832 40 31.3832C41.4514 31.3832 42.8388 31.1184 44.0122 30.6174C44.5327 30.3952 44.9941 30.1334 45.39 29.8389L45.4351 30.1819L49.3133 32.2917L52.7975 31.0197Z" fill="white"/>
</g>
<defs>
<filter id="filter0_d_2088_1934" x="0" y="0" width="80" height="80" filterUnits="userSpaceOnUse" color-interpolation-filters="sRGB">
<feFlood flood-opacity="0" result="BackgroundImageFix"/>
<feColorMatrix in="SourceAlpha" type="matrix" values="0 0 0 0 0 0 0 0 0 0 0 0 0 0 0 0 0 0 127 0" result="hardAlpha"/>
<feOffset dy="12"/>
<feGaussianBlur stdDeviation="6"/>
<feColorMatrix type="matrix" values="0 0 0 0 0.698039 0 0 0 0 0.141176 0 0 0 0 0.937255 0 0 0 0.08 0"/>
<feBlend mode="normal" in2="BackgroundImageFix" result="effect1_dropShadow_2088_1934"/>
<feBlend mode="normal" in="SourceGraphic" in2="effect1_dropShadow_2088_1934" result="shape"/>
</filter>
<linearGradient id="paint0_linear_2088_1934" x1="40" y1="0" x2="40" y2="56" gradientUnits="userSpaceOnUse">
<stop stop-color="#B224EF"/>
<stop offset="1" stop-color="#7579FF"/>
</linearGradient>
</defs>
</svg>
