<svg width="80" height="80" viewBox="0 0 80 80" fill="none" xmlns="http://www.w3.org/2000/svg">
<g filter="url(#filter0_d_2088_1926)">
<circle cx="40" cy="28" r="28" fill="url(#paint0_linear_2088_1926)"/>
<path fill-rule="evenodd" clip-rule="evenodd" d="M42.3696 19.1279V18.2271C42.3696 17.9451 42.1696 17.702 41.8931 17.6477C41.2785 17.5268 40.6435 17.4644 39.9941 17.4644C39.5951 17.465 39.2023 17.4892 38.8163 17.5366C38.5765 17.5657 38.3399 17.6035 38.1059 17.6497C37.8294 17.7048 37.6304 17.9473 37.6304 18.2293V19.1242C34.0134 20.0231 31.1911 22.9329 30.4188 26.5977L27.6 23.3622C27.2561 22.9225 26.5544 23.2582 26.682 23.802L30.2084 36.0882V37.4256C30.21 38.1161 30.9506 38.556 31.565 38.2396L39.5797 34.1167C39.8458 33.9802 40.1611 33.9834 40.4242 34.1246L48.4161 38.4233C49.0232 38.7501 49.7599 38.3263 49.7874 37.6374C49.7902 37.5619 49.7918 37.4866 49.7918 37.4106V36.0874L53.318 23.802C53.4458 23.2582 52.7439 22.9225 52.4 23.3622L49.5673 26.6137C48.7763 22.9581 45.9716 20.0339 42.3696 19.1279ZM38.4925 27.6549V30.4804C38.4925 30.7964 38.3098 31.0837 38.0235 31.2173L35.3726 32.4543C35.0735 32.5939 34.7199 32.539 34.4774 32.3148L32.1914 30.2046C31.9272 29.9608 31.8545 29.5722 32.0124 29.2494L32.9686 27.2977C33.1049 27.0183 33.3885 26.8415 33.699 26.8415H37.6797C38.1285 26.8415 38.4925 27.2059 38.4925 27.6549ZM47.8086 30.2046C48.0729 29.9608 48.1455 29.5722 47.9877 29.2494L47.0315 27.2977C46.8951 27.0183 46.6115 26.8415 46.3011 26.8415H42.3206C41.8716 26.8415 41.5076 27.2059 41.5076 27.6549V30.4804C41.5076 30.7964 41.6903 31.0837 41.9765 31.2173L44.6275 32.4543C44.9266 32.5939 45.2802 32.539 45.5229 32.3148L47.8086 30.2046Z" fill="white"/>
</g>
<defs>
<filter id="filter0_d_2088_1926" x="0" y="0" width="80" height="80" filterUnits="userSpaceOnUse" color-interpolation-filters="sRGB">
<feFlood flood-opacity="0" result="BackgroundImageFix"/>
<feColorMatrix in="SourceAlpha" type="matrix" values="0 0 0 0 0 0 0 0 0 0 0 0 0 0 0 0 0 0 127 0" result="hardAlpha"/>
<feOffset dy="12"/>
<feGaussianBlur stdDeviation="6"/>
<feColorMatrix type="matrix" values="0 0 0 0 0 0 0 0 0 0.356863 0 0 0 0 0.917647 0 0 0 0.08 0"/>
<feBlend mode="normal" in2="BackgroundImageFix" result="effect1_dropShadow_2088_1926"/>
<feBlend mode="normal" in="SourceGraphic" in2="effect1_dropShadow_2088_1926" result="shape"/>
</filter>
<linearGradient id="paint0_linear_2088_1926" x1="40" y1="0" x2="40" y2="56" gradientUnits="userSpaceOnUse">
<stop stop-color="#005BEA"/>
<stop offset="1" stop-color="#00C6FB"/>
</linearGradient>
</defs>
</svg>
