<svg width="80" height="80" viewBox="0 0 80 80" fill="none" xmlns="http://www.w3.org/2000/svg">
<g filter="url(#filter0_d_2088_1942)">
<circle cx="40" cy="28" r="28" fill="url(#paint0_linear_2088_1942)"/>
<path d="M41.2499 14.6667C35.7349 14.6667 31.2499 19.1517 31.2499 24.6667V26.1367L28.8383 30.96C28.7083 31.2184 28.7233 31.525 28.8749 31.77C29.0266 32.015 29.2949 32.1667 29.5833 32.1667H31.2499V36.18C31.2499 36.67 31.4633 37.1317 31.8383 37.4484C32.2133 37.765 32.6999 37.9034 33.1866 37.8217L36.2499 37.315V40.5C36.2499 40.745 36.3566 40.9784 36.5449 41.135C36.6966 41.2634 36.8866 41.3334 37.0833 41.3334C37.1283 41.3334 37.1749 41.33 37.2199 41.3217L47.2199 39.655C47.6216 39.5884 47.9166 39.2417 47.9166 38.8334V33.6984C47.9166 32.5384 48.4866 31.6084 48.9649 31.03C50.4383 29.25 51.2499 26.99 51.2499 24.6667C51.2499 19.1517 46.7649 14.6667 41.2499 14.6667Z" fill="white"/>
</g>
<defs>
<filter id="filter0_d_2088_1942" x="0" y="0" width="80" height="80" filterUnits="userSpaceOnUse" color-interpolation-filters="sRGB">
<feFlood flood-opacity="0" result="BackgroundImageFix"/>
<feColorMatrix in="SourceAlpha" type="matrix" values="0 0 0 0 0 0 0 0 0 0 0 0 0 0 0 0 0 0 127 0" result="hardAlpha"/>
<feOffset dy="12"/>
<feGaussianBlur stdDeviation="6"/>
<feColorMatrix type="matrix" values="0 0 0 0 1 0 0 0 0 0.494118 0 0 0 0 0.701961 0 0 0 0.08 0"/>
<feBlend mode="normal" in2="BackgroundImageFix" result="effect1_dropShadow_2088_1942"/>
<feBlend mode="normal" in="SourceGraphic" in2="effect1_dropShadow_2088_1942" result="shape"/>
</filter>
<linearGradient id="paint0_linear_2088_1942" x1="40" y1="0" x2="40" y2="56" gradientUnits="userSpaceOnUse">
<stop stop-color="#FF7EB3"/>
<stop offset="1" stop-color="#FF758C"/>
</linearGradient>
</defs>
</svg>
