<svg width="80" height="80" viewBox="0 0 80 80" fill="none" xmlns="http://www.w3.org/2000/svg">
<g filter="url(#filter0_d_2088_1930)">
<circle cx="40" cy="28" r="28" fill="url(#paint0_linear_2088_1930)"/>
<path d="M40.3647 14.6667H39.563C34.1447 14.6667 29.7916 18.6889 29.7916 23.6342V28.7421C29.7916 30.4161 30.8333 31.9172 32.4999 32.4223V35.6473C32.4999 38.8358 38.2825 41.3334 39.3554 41.3334H40.5723C41.6449 41.3334 47.5001 38.8358 47.5001 35.6473V32.4223C49.1667 31.9174 50.2084 30.4159 50.2084 28.7421V23.6342C50.2086 18.6889 45.783 14.6667 40.3647 14.6667ZM39.9638 29.0391C40.8878 29.0391 41.3953 31.3949 41.3953 32.1757C41.3953 32.9239 40.9659 33.0246 40.5456 33.0246C40.463 33.0246 40.3741 33.0212 40.2802 33.0173C40.0805 33.0092 39.8469 33.0092 39.6481 33.0173C39.554 33.0214 39.4653 33.0246 39.3823 33.0246C39.1824 33.0246 38.9548 33.0058 38.7832 32.8661C38.6121 32.727 38.5326 32.5075 38.5326 32.1757C38.5326 31.3949 39.0401 29.0391 39.9638 29.0391ZM34.1125 26.3397C34.4773 25.8998 34.9978 25.6351 35.5787 25.5958L36.4984 25.5331C37.7272 25.4518 38.6872 26.0835 38.6872 26.9377C38.6872 27.7552 37.8655 28.8136 36.8167 29.3471L36.0188 29.7527C35.7375 29.896 35.4546 29.9686 35.1792 29.9686C34.4013 29.9686 33.8317 29.4032 33.7266 28.5283L33.6536 27.9188C33.5847 27.3409 33.7475 26.7803 34.1125 26.3397ZM46.1506 33.0519L44.1667 33.7252V34.8776C44.1667 34.9066 44.1431 34.9367 44.1371 34.9642C44.0906 35.9669 43.1914 36.5419 41.6901 36.5419H38.1731C36.9993 36.5419 35.8335 35.9682 35.8335 34.8776V33.7252L33.8179 33.0519C33.5998 32.9785 33.4767 32.7426 33.5501 32.5243C33.6231 32.3063 33.8571 32.1883 34.0747 32.2621L36.3732 33.0308C36.543 33.088 36.6667 33.2469 36.6667 33.4261V34.878C36.6667 35.127 36.8167 35.3105 37.0458 35.4415C37.0746 35.2394 37.2683 35.0835 37.4783 35.0835C37.7082 35.0835 37.9167 35.2702 37.9167 35.5001V35.6866C37.9167 35.6992 38.0767 35.7088 38.1729 35.7088H38.75V35.4999C38.75 35.2699 38.9366 35.0833 39.1666 35.0833C39.3966 35.0833 39.5832 35.2699 39.5832 35.4999V35.7088H40.4165V35.4999C40.4165 35.2699 40.6032 35.0833 40.8332 35.0833C41.0632 35.0833 41.2498 35.2699 41.2498 35.4999V35.7088H41.6899C41.7983 35.7088 41.8747 35.702 42.0831 35.6917V35.5001C42.0831 35.2702 42.2512 35.0835 42.4812 35.0835C42.7071 35.0835 42.8806 35.2633 42.8874 35.4878C43.1255 35.3636 43.3102 35.1727 43.3102 34.8783C43.3102 34.8527 43.3328 34.8277 43.3328 34.8032V33.4263C43.3328 33.2471 43.4263 33.0882 43.5961 33.031L45.8743 32.2623C46.0927 32.1885 46.334 32.3065 46.407 32.5245C46.4812 32.7424 46.3688 32.9785 46.1506 33.0519ZM46.5296 27.9186L46.4567 28.5279C46.3519 29.403 45.7819 29.9684 45.0043 29.9684C44.7287 29.9684 44.4462 29.8958 44.1644 29.7525L43.3667 29.3469C42.3178 28.8134 41.4962 27.7552 41.4962 26.9375C41.4962 26.0833 42.459 25.4523 43.6848 25.5329L44.6047 25.5956C45.1854 25.6351 45.706 25.8996 46.071 26.3397C46.4362 26.7803 46.599 27.3409 46.5296 27.9186Z" fill="white"/>
</g>
<defs>
<filter id="filter0_d_2088_1930" x="0" y="0" width="80" height="80" filterUnits="userSpaceOnUse" color-interpolation-filters="sRGB">
<feFlood flood-opacity="0" result="BackgroundImageFix"/>
<feColorMatrix in="SourceAlpha" type="matrix" values="0 0 0 0 0 0 0 0 0 0 0 0 0 0 0 0 0 0 127 0" result="hardAlpha"/>
<feOffset dy="12"/>
<feGaussianBlur stdDeviation="6"/>
<feColorMatrix type="matrix" values="0 0 0 0 0.929412 0 0 0 0 0.113725 0 0 0 0 0.141176 0 0 0 0.08 0"/>
<feBlend mode="normal" in2="BackgroundImageFix" result="effect1_dropShadow_2088_1930"/>
<feBlend mode="normal" in="SourceGraphic" in2="effect1_dropShadow_2088_1930" result="shape"/>
</filter>
<linearGradient id="paint0_linear_2088_1930" x1="40" y1="0" x2="40" y2="56" gradientUnits="userSpaceOnUse">
<stop stop-color="#ED1D24"/>
<stop offset="1" stop-color="#ED1F69"/>
</linearGradient>
</defs>
</svg>
